<mxfile host="app.diagrams.net" modified="2022-06-01T03:21:53.677Z" agent="5.0 (Macintosh; Intel Mac OS X 10_15_7) AppleWebKit/537.36 (KHTML, like Gecko) Chrome/102.0.5005.61 Safari/537.36" etag="r84m1qHIxe5CrJfzvqk9" version="18.2.0" type="github">
  <diagram id="sbylWscTBvAJOgYF0yng" name="Page-1">
    <mxGraphModel dx="786" dy="489" grid="1" gridSize="10" guides="1" tooltips="1" connect="1" arrows="1" fold="1" page="1" pageScale="1" pageWidth="827" pageHeight="1169" background="#ffffff" math="0" shadow="0">
      <root>
        <mxCell id="0" />
        <mxCell id="1" parent="0" />
        <mxCell id="PEtQi_gm45PG2zuL1EbR-1" value="pids_datamall_to_lta_cd_map" style="swimlane;fontStyle=0;childLayout=stackLayout;horizontal=1;startSize=30;horizontalStack=0;resizeParent=1;resizeParentMax=0;resizeLast=0;collapsible=1;marginBottom=0;" vertex="1" parent="1">
          <mxGeometry x="70" y="200" width="230" height="120" as="geometry" />
        </mxCell>
        <mxCell id="PEtQi_gm45PG2zuL1EbR-2" value="service_no" style="text;strokeColor=none;fillColor=none;align=left;verticalAlign=middle;spacingLeft=4;spacingRight=4;overflow=hidden;points=[[0,0.5],[1,0.5]];portConstraint=eastwest;rotatable=0;" vertex="1" parent="PEtQi_gm45PG2zuL1EbR-1">
          <mxGeometry y="30" width="230" height="30" as="geometry" />
        </mxCell>
        <mxCell id="PEtQi_gm45PG2zuL1EbR-3" value="datamall_code" style="text;strokeColor=none;fillColor=none;align=left;verticalAlign=middle;spacingLeft=4;spacingRight=4;overflow=hidden;points=[[0,0.5],[1,0.5]];portConstraint=eastwest;rotatable=0;" vertex="1" parent="PEtQi_gm45PG2zuL1EbR-1">
          <mxGeometry y="60" width="230" height="30" as="geometry" />
        </mxCell>
        <mxCell id="PEtQi_gm45PG2zuL1EbR-4" value="lta_code" style="text;strokeColor=none;fillColor=none;align=left;verticalAlign=middle;spacingLeft=4;spacingRight=4;overflow=hidden;points=[[0,0.5],[1,0.5]];portConstraint=eastwest;rotatable=0;" vertex="1" parent="PEtQi_gm45PG2zuL1EbR-1">
          <mxGeometry y="90" width="230" height="30" as="geometry" />
        </mxCell>
        <mxCell id="PEtQi_gm45PG2zuL1EbR-6" value="Display prepare the swap map from cachex" style="rounded=1;whiteSpace=wrap;html=1;" vertex="1" parent="1">
          <mxGeometry x="395" y="150" width="120" height="60" as="geometry" />
        </mxCell>
        <mxCell id="PEtQi_gm45PG2zuL1EbR-10" style="edgeStyle=orthogonalEdgeStyle;rounded=0;orthogonalLoop=1;jettySize=auto;html=1;exitX=1;exitY=0.25;exitDx=0;exitDy=0;entryX=0.5;entryY=1;entryDx=0;entryDy=0;" edge="1" parent="1" source="PEtQi_gm45PG2zuL1EbR-7" target="PEtQi_gm45PG2zuL1EbR-9">
          <mxGeometry relative="1" as="geometry" />
        </mxCell>
        <mxCell id="PEtQi_gm45PG2zuL1EbR-7" value="Genserver generate swap map from database for every 5 mins and save to cachex" style="rounded=1;whiteSpace=wrap;html=1;" vertex="1" parent="1">
          <mxGeometry x="370" y="300" width="180" height="90" as="geometry" />
        </mxCell>
        <mxCell id="PEtQi_gm45PG2zuL1EbR-11" style="edgeStyle=orthogonalEdgeStyle;rounded=0;orthogonalLoop=1;jettySize=auto;html=1;exitX=0.5;exitY=0;exitDx=0;exitDy=0;entryX=1;entryY=0.5;entryDx=0;entryDy=0;" edge="1" parent="1" source="PEtQi_gm45PG2zuL1EbR-9" target="PEtQi_gm45PG2zuL1EbR-6">
          <mxGeometry relative="1" as="geometry" />
        </mxCell>
        <mxCell id="PEtQi_gm45PG2zuL1EbR-9" value="cachex" style="rounded=1;whiteSpace=wrap;html=1;" vertex="1" parent="1">
          <mxGeometry x="590" y="230" width="120" height="60" as="geometry" />
        </mxCell>
      </root>
    </mxGraphModel>
  </diagram>
</mxfile>
